<svg width="64" height="64" viewBox="0 0 64 64" fill="none" xmlns="http://www.w3.org/2000/svg">
  <!-- Background Circle -->
  <circle cx="32" cy="32" r="32" fill="url(#gradient1)"/>
  
  <!-- Hammer Icon -->
  <g transform="translate(16, 16)">
    <!-- Handle -->
    <rect x="3" y="20" width="4" height="18" rx="2" fill="white" opacity="0.9"/>
    
    <!-- Hammer Head -->
    <path d="M1 16 L15 16 C16.1046 16 17 16.8954 17 18 L17 22 C17 23.1046 16.1046 24 15 24 L1 24 C-0.104569 24 -1 23.1046 -1 22 L-1 18 C-1 16.8954 -0.104569 16 1 16Z" fill="white"/>
    
    <!-- Sparkle 1 -->
    <circle cx="24" cy="8" r="2" fill="white" opacity="0.8"/>
    <line x1="24" y1="5" x2="24" y2="11" stroke="white" stroke-width="1" opacity="0.6"/>
    <line x1="21" y1="8" x2="27" y2="8" stroke="white" stroke-width="1" opacity="0.6"/>
    
    <!-- Sparkle 2 -->
    <circle cx="28" cy="18" r="1.5" fill="white" opacity="0.7"/>
    <line x1="28" y1="16" x2="28" y2="20" stroke="white" stroke-width="0.8" opacity="0.5"/>
    <line x1="26" y1="18" x2="30" y2="18" stroke="white" stroke-width="0.8" opacity="0.5"/>
  </g>
  
  <!-- Gradient Definition -->
  <defs>
    <linearGradient id="gradient1" x1="0%" y1="0%" x2="100%" y2="100%">
      <stop offset="0%" style="stop-color:#6366f1;stop-opacity:1" />
      <stop offset="100%" style="stop-color:#4f46e5;stop-opacity:1" />
    </linearGradient>
  </defs>
</svg>

